HIERARCHY
ROOT Hips
{
	OFFSET 0.000000 0.000000 0.000000 
	CHANNELS 6 Xposition Yposition Zposition Yrotation Zrotation Xrotation 
	JOINT Lumbar
	{
		OFFSET 0.000000 0.000000 0.000000 
		CHANNELS 3 Zrotation Xrotation Yrotation
		JOINT Neck
		{
			OFFSET 0.000000 0.445665 0.000000 
			CHANNELS 3 Zrotation Xrotation Yrotation
			End Site
			{
				OFFSET 0.000000 0.227535 0.000000 
			}
		}
		JOINT RightShoulder
		{
			OFFSET 0.019635 0.377685 0.194865 
			CHANNELS 3 Zrotation Xrotation Yrotation
			JOINT RightElbow
			{
				OFFSET 0.000000 -0.243375 0.000000 
				CHANNELS 2 Zrotation Yrotation
				JOINT RightWrist
				{
					OFFSET 0.000000 -0.264825 0.000000 
					CHANNELS 2 Zrotation Xrotation
					End Site
					{
						OFFSET 0.006600 -0.176220 0.000990 
					}
				}
			}
		}
		JOINT LeftShoulder
		{
			OFFSET 0.019635 0.377685 -0.194865 
			CHANNELS 3 Zrotation Xrotation Yrotation
			JOINT LeftElbow
			{
				OFFSET 0.000000 -0.243375 0.000000 
				CHANNELS 2 Zrotation Yrotation
				JOINT LeftWrist
				{
					OFFSET 0.000000 -0.264825 0.000000 
					CHANNELS 2 Zrotation Xrotation
					End Site
					{
						OFFSET 0.006600 -0.176220 -0.000990 
					}
				}
			}
		}
	}
	JOINT RightHip
	{
		OFFSET 0.052140 -0.069960 0.075570 
		CHANNELS 3 Zrotation Xrotation Yrotation
		JOINT RightKnee
		{
			OFFSET 0.000000 -0.402270 0.000000 
			CHANNELS 1 Zrotation
			JOINT RightAnkle
			{
				OFFSET 0.000000 -0.404085 0.000000 
				CHANNELS 3 Zrotation Xrotation Yrotation
				End Site
				{
					OFFSET 0.204105 -0.089430 0.008415 
				}
			}
		}
	}
	JOINT LeftHip
	{
		OFFSET 0.052140 -0.069960 -0.075570 
		CHANNELS 3 Zrotation Xrotation Yrotation
		JOINT LeftKnee
		{
			OFFSET 0.000000 -0.402270 0.000000 
			CHANNELS 1 Zrotation
			JOINT LeftAnkle
			{
				OFFSET 0.000000 -0.404085 0.000000 
				CHANNELS 3 Zrotation Xrotation Yrotation
				End Site
				{
					OFFSET 0.204105 -0.089430 -0.008415 
				}
			}
		}
	}
}
MOTION
Frames: 27
Frame Time: 0.02
0.21329 0.02063 0.15859 597.39089 -31.546 -0.90533 28.34295 7.45672 -10.6858 -25.80443 16.98577 -2.11994 -20.58702 -12.50286 -26.60688 19.42671 80.4189 -4.95141 0.4586 -38.66983 37.87591 -9.88057 74.66376 -81.13199 -3.53664 -1.12415 36.41283 -7.07681 -6.82537 -23.5446 -9.33812 -2.21016 -3.43772 25.50393 3.77806 4.70537 -29.0387 -7.10121 2.85839 3.64337
0.21101 0.02048 0.16151 599.37429 -31.57372 -0.28352 28.03472 7.89758 -10.42059 -25.99668 17.46579 -2.11994 -20.11535 -12.63932 -26.7041 19.3397 80.42342 -5.0094 0.21857 -40.10149 37.26563 -9.13357 73.90068 -81.1351 -3.49633 -1.12012 36.86193 -7.46723 -6.62738 -23.481 -9.3134 -2.145 -3.40263 25.41405 3.75607 4.7066 -28.81487 -7.08487 2.70213 3.56138
0.20835 0.02052 0.16427 601.35387 -31.67645 0.3691 27.76069 8.41058 -10.12948 -26.15897 17.81502 -2.11994 -19.58997 -12.76276 -26.89249 19.39895 80.42672 -5.05606 -0.00403 -41.52829 36.63071 -8.23881 72.82279 -81.13511 -3.40761 -1.11065 37.35136 -7.93335 -6.79874 -23.2977 -9.28521 -2.02819 -3.34217 25.40962 3.82174 5.01762 -28.55808 -7.07456 2.51228 3.46215
0.20586 0.02047 0.16706 603.34248 -31.71188 1.01122 27.43013 8.89923 -9.85322 -26.32333 18.2155 -2.11994 -19.07938 -12.89643 -27.05028 19.39551 80.43105 -5.11006 -0.23647 -42.9285 36.01396 -7.41692 71.87291 -81.14374 -3.33547 -1.10211 37.78459 -8.36607 -6.81276 -23.16282 -9.26088 -1.93292 -3.29259 25.33729 3.84323 5.17161 -28.31367 -7.06406 2.33769 3.37125
0.2034 0.02048 0.17004 605.30686 -31.88523 1.63948 27.26346 9.35393 -9.56473 -26.53205 18.66099 -2.11994 -18.60406 -13.01133 -27.16084 19.37452 80.43366 -5.15895 -0.46353 -44.45984 35.36305 -6.55859 70.985 -81.1172 -3.29199 -1.09981 38.37695 -8.79592 -6.77826 -23.05208 -9.22816 -1.84497 -3.24542 25.38665 3.88099 5.38418 -28.07763 -7.04333 2.16322 3.27837
0.20078 0.02039 0.17259 607.31899 -31.79399 2.3045 26.77231 9.89535 -9.29589 -26.64313 18.97793 -2.11994 -18.04438 -13.16334 -27.39159 19.42474 80.4394 -5.21407 -0.69646 -45.71321 34.78046 -5.74708 69.89625 -81.16481 -3.17523 -1.08321 38.65117 -9.24875 -6.92846 -22.86561 -9.21122 -1.73123 -3.18797 25.20834 3.90654 5.55361 -27.81843 -7.04519 1.98054 3.18549
0.19795 0.02008 0.17396 609.45399 -30.90403 3.0517 25.31166 10.6646 -9.07966 -26.48923 18.96604 -2.11994 -17.26681 -13.40997 -27.93656 19.64475 80.45498 -5.29059 -0.95166 -46.19911 34.37743 -5.08588 68.30028 -81.42042 -2.86617 -1.02973 37.99467 -9.75225 -7.56994 -22.46879 -9.24357 -1.54143 -3.10048 24.31703 3.87593 5.51014 -27.49 -7.10728 1.78275 3.0967
0.19494 0.01965 0.17492 611.63712 -29.75396 3.83653 23.53578 11.5173 -8.88507 -26.23896 18.82725 -2.11994 -16.40646 -13.69643 -28.59826 19.93031 80.47363 -5.37277 -1.21257 -46.40372 34.04697 -4.48169 66.51856 -81.75098 -2.48446 -0.96185 37.0243 -10.27509 -8.37368 -22.006 -9.29091 -1.3305 -3.0049 23.20474 3.83043 5.41703 -27.14225 -7.19197 1.57806 3.00858
0.19192 0.01924 0.17609 613.80473 -28.75553 4.61182 21.94751 12.32775 -8.68601 -26.03544 18.75084 -2.11994 -15.58377 -13.97174 -29.2044 20.17999 80.49018 -5.45112 -1.46952 -46.73719 33.69418 -3.86233 64.84096 -82.04638 -2.13645 -0.89975 36.2247 -10.78522 -9.05645 -21.59234 -9.32807 -1.14077 -2.91821 22.23462 3.79271 5.35974 -26.81208 -7.26666 1.37677 2.92014
0.18928 0.01898 0.17714 615.94901 -27.61947 5.35711 20.17356 13.15917 -8.46473 -25.81922 18.65667 -2.11994 -14.75965 -14.21705 -29.82638 20.45934 80.50941 -5.53523 -1.73219 -47.06865 33.29702 -3.19055 63.06859 -82.34641 -1.78427 -0.84068 35.30688 -11.31458 -9.94726 -21.09097 -9.37933 -0.90077 -2.80882 21.09163 3.75389 5.25746 -26.44289 -7.34032 1.17271 2.83092
0.1858 0.01839 0.17835 618.14896 -26.70622 6.17238 18.71052 13.96559 -8.29357 -25.60586 18.56288 -2.11994 -13.91865 -14.53474 -30.43927 20.69196 80.52413 -5.60783 -1.98385 -47.3346 33.00795 -2.64562 61.45436 -82.65443 -1.42376 -0.77198 34.56136 -11.80746 -10.44359 -20.76157 -9.40484 -0.76054 -2.74489 20.2547 3.71249 5.23269 -26.15168 -7.42152 0.97382 2.744
0.18003 0.01686 0.18016 620.52833 -26.48075 7.18063 18.1885 14.68345 -8.26943 -25.43372 18.57045 -2.11994 -13.06097 -15.04001 -31.02047 20.76753 80.52282 -5.65543 -2.20903 -47.51278 33.01647 -2.42038 60.31887 -82.96863 -1.06053 -0.67993 34.35761 -12.19447 -9.7659 -20.89341 -9.3556 -0.90622 -2.81063 20.32039 3.66926 5.43667 -26.07389 -7.51751 0.78601 2.661
0.17342 0.015 0.18215 622.95518 -26.48636 8.25619 17.98946 15.37237 -8.29247 -25.26602 18.57019 -2.11994 -12.18861 -15.61716 -31.58377 20.7957 80.51736 -5.6896 -2.42178 -47.63003 33.12851 -2.32511 59.35225 -83.28812 -0.69083 -0.57883 34.3392 -12.54365 -8.69226 -21.20574 -9.28005 -1.15232 -2.92213 20.70086 3.62337 5.71856 -26.07691 -7.62059 0.60467 2.5808
0.16719 0.01331 0.18405 625.33559 -26.38011 9.29492 17.63843 16.07408 -8.28496 -25.09021 18.52907 -2.11994 -11.31571 -16.1633 -32.14066 20.8522 80.51569 -5.72483 -2.6371 -47.75948 33.18188 -2.1815 58.31072 -83.60327 -0.32314 -0.48203 34.24367 -12.91018 -7.8275 -21.4568 -9.21644 -1.34925 -3.01138 20.9342 3.57694 5.96126 -26.04713 -7.72046 0.42385 2.50095
0.16096 0.01152 0.18596 627.82224 -26.29413 10.36131 17.29697 16.78183 -8.31678 -24.93718 18.67208 -2.11994 -10.46639 -16.70434 -32.76381 20.88085 80.50624 -5.78223 -2.86657 -47.94525 33.28578 -1.99283 57.25028 -83.92814 0.04171 -0.38367 34.11002 -13.27731 -6.84619 -21.62193 -9.15302 -1.56026 -3.10644 21.17613 3.5367 6.21752 -25.99902 -7.82018 0.22845 2.41435
0.15452 0.00988 0.18791 630.09877 -26.22367 11.38561 17.01822 17.46711 -8.27745 -24.73845 18.43 -2.11994 -9.57051 -17.27192 -33.24227 20.95732 80.51176 -5.78929 -3.06233 -48.00199 33.30943 -1.93024 56.2774 -84.23436 0.41494 -0.2869 34.10035 -13.63324 -6.01177 -22.00466 -9.08326 -1.76616 -3.20043 21.47901 3.48405 6.46573 -26.00985 -7.92273 0.06465 2.34233
0.14778 0.00871 0.18988 631.77941 -26.14481 12.27637 16.82003 18.11311 -8.03096 -24.41782 17.14128 -2.11994 -8.50968 -17.90054 -33.33343 21.16055 80.56142 -5.66852 -3.17851 -47.72639 33.07396 -2.16524 55.46043 -84.47553 0.79254 -0.19438 34.41933 -13.97296 -5.6756 -22.98867 -8.99851 -1.93298 -3.28003 21.86454 3.38959 6.66333 -26.1532 -8.0213 -0.00975 2.31132
0.14086 0.00771 0.19188 633.24811 -26.07366 13.12217 16.67827 18.73396 -7.71081 -24.05062 15.46497 -2.11994 -7.41174 -18.55226 -33.27831 21.41641 80.62597 -5.49621 -3.25944 -47.32285 32.75588 -2.52505 54.73644 -84.69923 1.18066 -0.10431 34.85225 -14.30142 -5.50063 -24.17738 -8.90919 -2.09142 -3.35708 22.30381 3.28418 6.85209 -26.35544 -8.12407 -0.05311 2.29466
0.13397 0.00665 0.19388 634.81545 -25.9971 13.98927 16.52076 19.35585 -7.42395 -23.70157 13.9548 -2.11994 -6.35575 -19.18959 -33.28342 21.65881 80.6825 -5.34207 -3.3493 -46.97324 32.48353 -2.84082 53.99835 -84.93912 1.57553 -0.01473 35.21394 -14.63158 -5.25405 -25.2436 -8.82416 -2.25403 -3.43544 22.72451 3.18945 7.05122 -26.5373 -8.2316 -0.11326 2.27041
0.12725 0.0055 0.19581 636.37203 -25.93748 14.85616 16.33115 20.02144 -7.14022 -23.36492 12.47915 -2.11994 -5.18778 -19.8456 -33.31117 21.85516 80.74407 -5.20893 -3.46768 -46.63873 32.18112 -3.11104 53.1415 -85.14614 1.92415 0.08202 35.66442 -14.97556 -4.98775 -26.44078 -8.72789 -2.41844 -3.51464 23.12904 3.07122 7.22623 -26.69378 -8.3119 -0.16241 2.25054
0.12015 0.00459 0.19791 637.9034 -25.84019 15.71058 16.21937 20.58941 -6.83102 -22.99184 10.84887 -2.11994 -4.25137 -20.46763 -33.26123 22.1609 80.79884 -5.0209 -3.51969 -46.24367 31.91928 -3.49979 52.559 -85.41519 2.3688 0.16306 35.95415 -15.28766 -4.80478 -27.41105 -8.65554 -2.57599 -3.59106 23.57881 2.99849 7.44838 -26.91764 -8.44902 -0.22651 2.22522
0.11197 0.00424 0.20048 639.38778 -25.64661 16.55209 16.29306 20.90225 -6.47629 -22.52593 8.80844 -2.11994 -3.90532 -20.98595 -32.99918 22.75304 80.83035 -4.68624 -3.3864 -45.71056 31.79798 -4.22129 52.65046 -85.87918 3.0994 0.20184 35.77534 -15.5224 -4.82437 -27.70641 -8.63985 -2.71462 -3.65883 24.11444 3.06134 7.80246 -27.29816 -8.74872 -0.34519 2.17884
0.10344 0.00412 0.20322 640.85914 -25.41185 17.37996 16.44452 21.11625 -6.09698 -22.02599 6.64088 -2.11994 -3.80504 -21.46936 -32.671 23.45419 80.85468 -4.29968 -3.18962 -45.12239 31.71814 -5.05024 53.02531 -86.40288 3.92193 0.22473 35.42907 -15.72401 -4.92225 -27.76463 -8.65047 -2.84642 -3.72393 24.69672 3.16875 8.20398 -27.74595 -9.1041 -0.47885 2.12698
0.09514 0.00392 0.20586 642.35559 -25.18859 18.20728 16.56894 21.37024 -5.72422 -21.54358 4.58207 -2.11994 -3.62979 -21.97159 -32.39415 24.1075 80.88287 -3.94195 -3.02888 -44.56026 31.61351 -5.8059 53.30955 -86.88613 4.68699 0.25457 35.15678 -15.93595 -4.97815 -27.92996 -8.65605 -2.98229 -3.79116 25.27348 3.25133 8.58362 -28.17357 -9.42968 -0.60209 2.07919
0.08653 0.00362 0.2086 643.76442 -24.9965 19.06296 16.6602 21.64431 -5.36838 -21.04938 2.29245 -2.11994 -3.29612 -22.46356 -32.01949 24.7555 80.90903 -3.5601 -2.83639 -43.98637 31.53176 -6.66984 53.43611 -87.42367 5.51851 0.28559 34.89858 -16.16798 -5.06546 -28.1073 -8.63225 -3.11421 -3.85466 25.78738 3.3539 8.9643 -28.56317 -9.77476 -0.73997 2.02502
0.07849 0.00359 0.21116 645.35455 -24.72917 19.85515 16.83859 21.85321 -4.97247 -20.57407 0.46103 -2.11994 -3.3539 -22.9666 -31.83833 25.4397 80.93755 -3.21708 -2.69565 -43.42927 31.41255 -7.33141 53.95698 -87.86416 6.23352 0.31024 34.56847 -16.34976 -5.10513 -28.19814 -8.67594 -3.25235 -3.92509 26.44097 3.42425 9.35426 -29.04241 -10.09193 -0.85073 1.98292
0.07202 0.00421 0.21319 647.45575 -24.26788 20.49048 17.23435 21.9082 -4.47096 -20.14476 -0.09352 -2.11994 -4.40972 -23.5237 -32.17818 26.19729 80.9741 -2.992 -2.71102 -42.90137 31.186 -7.41311 55.4966 -88.00733 6.6009 0.32261 34.09179 -16.40747 -4.98402 -28.12826 -8.89949 -3.41342 -4.01723 27.48191 3.40586 9.75793 -29.79197 -10.32243 -0.88818 1.97298
